<mxfile host="app.diagrams.net" agent="Mozilla/5.0 (Windows NT 10.0; Win64; x64) AppleWebKit/537.36 (KHTML, like Gecko) Chrome/132.0.0.0 Safari/537.36 OPR/117.0.0.0" version="26.2.12">
  <diagram name="Page-1" id="2bL_AKRuU_imKiJDhpzt">
    <mxGraphModel dx="1368" dy="1822" grid="0" gridSize="10" guides="1" tooltips="1" connect="1" arrows="1" fold="1" page="0" pageScale="1" pageWidth="850" pageHeight="1100" math="0" shadow="0">
      <root>
        <mxCell id="0" />
        <mxCell id="1" parent="0" />
        <mxCell id="PSuhd4bYiq95UcWW58Qu-41" value="" style="rounded=0;whiteSpace=wrap;html=1;fillColor=none;dashed=1;dashPattern=8 8;strokeColor=light-dark(#000000,#99CCFF);" vertex="1" parent="1">
          <mxGeometry x="-57.5" y="347" width="501" height="262" as="geometry" />
        </mxCell>
        <mxCell id="PSuhd4bYiq95UcWW58Qu-2" value="" style="rounded=0;html=1;jettySize=auto;orthogonalLoop=1;fontSize=11;endArrow=block;endFill=0;endSize=8;strokeWidth=1;shadow=0;labelBackgroundColor=none;edgeStyle=orthogonalEdgeStyle;curved=1;" edge="1" parent="1" source="PSuhd4bYiq95UcWW58Qu-3" target="PSuhd4bYiq95UcWW58Qu-6">
          <mxGeometry relative="1" as="geometry" />
        </mxCell>
        <mxCell id="PSuhd4bYiq95UcWW58Qu-3" value="Start" style="rounded=1;whiteSpace=wrap;html=1;fontSize=12;glass=0;strokeWidth=1;shadow=0;" vertex="1" parent="1">
          <mxGeometry x="20" y="20" width="120" height="40" as="geometry" />
        </mxCell>
        <mxCell id="PSuhd4bYiq95UcWW58Qu-5" value="Yes" style="edgeStyle=orthogonalEdgeStyle;rounded=0;html=1;jettySize=auto;orthogonalLoop=1;fontSize=11;endArrow=block;endFill=0;endSize=8;strokeWidth=1;shadow=0;labelBackgroundColor=none;" edge="1" parent="1" source="PSuhd4bYiq95UcWW58Qu-6" target="PSuhd4bYiq95UcWW58Qu-7">
          <mxGeometry x="0.4573" relative="1" as="geometry">
            <mxPoint as="offset" />
          </mxGeometry>
        </mxCell>
        <mxCell id="PSuhd4bYiq95UcWW58Qu-15" value="No" style="edgeStyle=orthogonalEdgeStyle;rounded=0;orthogonalLoop=1;jettySize=auto;html=1;fontSize=12;startSize=8;endSize=8;exitX=0;exitY=0.5;exitDx=0;exitDy=0;entryX=0.5;entryY=0;entryDx=0;entryDy=0;" edge="1" parent="1" source="PSuhd4bYiq95UcWW58Qu-6" target="PSuhd4bYiq95UcWW58Qu-13">
          <mxGeometry x="0.5034" relative="1" as="geometry">
            <mxPoint as="offset" />
          </mxGeometry>
        </mxCell>
        <mxCell id="PSuhd4bYiq95UcWW58Qu-6" value="Height &amp;gt; 120?" style="rhombus;whiteSpace=wrap;html=1;shadow=0;fontFamily=Helvetica;fontSize=12;align=center;strokeWidth=1;spacing=6;spacingTop=-4;" vertex="1" parent="1">
          <mxGeometry x="30" y="110" width="100" height="80" as="geometry" />
        </mxCell>
        <mxCell id="PSuhd4bYiq95UcWW58Qu-17" value="" style="edgeStyle=none;curved=1;rounded=0;orthogonalLoop=1;jettySize=auto;html=1;fontSize=12;startSize=8;endSize=8;" edge="1" parent="1" source="PSuhd4bYiq95UcWW58Qu-7" target="PSuhd4bYiq95UcWW58Qu-16">
          <mxGeometry relative="1" as="geometry" />
        </mxCell>
        <mxCell id="PSuhd4bYiq95UcWW58Qu-7" value="Can ride" style="rounded=1;whiteSpace=wrap;html=1;fontSize=12;glass=0;strokeWidth=1;shadow=0;" vertex="1" parent="1">
          <mxGeometry x="133" y="227" width="120" height="40" as="geometry" />
        </mxCell>
        <mxCell id="PSuhd4bYiq95UcWW58Qu-13" value="Can&#39;t ride" style="rounded=1;whiteSpace=wrap;html=1;shadow=0;strokeWidth=1;spacing=6;spacingTop=-4;" vertex="1" parent="1">
          <mxGeometry x="-106" y="227" width="120" height="38" as="geometry" />
        </mxCell>
        <mxCell id="PSuhd4bYiq95UcWW58Qu-19" value="Over 18" style="edgeStyle=orthogonalEdgeStyle;rounded=0;orthogonalLoop=1;jettySize=auto;html=1;fontSize=12;startSize=8;endSize=8;entryX=0.5;entryY=0;entryDx=0;entryDy=0;" edge="1" parent="1" source="PSuhd4bYiq95UcWW58Qu-16" target="PSuhd4bYiq95UcWW58Qu-18">
          <mxGeometry x="0.016" relative="1" as="geometry">
            <mxPoint as="offset" />
          </mxGeometry>
        </mxCell>
        <mxCell id="PSuhd4bYiq95UcWW58Qu-21" value="Under 12" style="edgeStyle=orthogonalEdgeStyle;rounded=0;orthogonalLoop=1;jettySize=auto;html=1;fontSize=12;startSize=8;endSize=8;exitX=0;exitY=0.5;exitDx=0;exitDy=0;entryX=0.5;entryY=0;entryDx=0;entryDy=0;" edge="1" parent="1" source="PSuhd4bYiq95UcWW58Qu-16" target="PSuhd4bYiq95UcWW58Qu-20">
          <mxGeometry relative="1" as="geometry" />
        </mxCell>
        <mxCell id="PSuhd4bYiq95UcWW58Qu-46" value="12-18" style="edgeStyle=none;curved=1;rounded=0;orthogonalLoop=1;jettySize=auto;html=1;fontSize=12;startSize=8;endSize=8;" edge="1" parent="1" source="PSuhd4bYiq95UcWW58Qu-16" target="PSuhd4bYiq95UcWW58Qu-45">
          <mxGeometry relative="1" as="geometry" />
        </mxCell>
        <mxCell id="PSuhd4bYiq95UcWW58Qu-16" value="Age" style="rhombus;whiteSpace=wrap;html=1;rounded=1;glass=0;strokeWidth=1;shadow=0;" vertex="1" parent="1">
          <mxGeometry x="153" y="367" width="80" height="80" as="geometry" />
        </mxCell>
        <mxCell id="PSuhd4bYiq95UcWW58Qu-51" style="edgeStyle=orthogonalEdgeStyle;rounded=0;orthogonalLoop=1;jettySize=auto;html=1;exitX=0.5;exitY=1;exitDx=0;exitDy=0;entryX=1;entryY=0;entryDx=0;entryDy=0;fontSize=12;startSize=8;endSize=8;" edge="1" parent="1" source="PSuhd4bYiq95UcWW58Qu-18" target="PSuhd4bYiq95UcWW58Qu-48">
          <mxGeometry relative="1" as="geometry" />
        </mxCell>
        <mxCell id="PSuhd4bYiq95UcWW58Qu-18" value="$12" style="whiteSpace=wrap;html=1;rounded=1;glass=0;strokeWidth=1;shadow=0;" vertex="1" parent="1">
          <mxGeometry x="292" y="475" width="120" height="60" as="geometry" />
        </mxCell>
        <mxCell id="PSuhd4bYiq95UcWW58Qu-50" style="edgeStyle=orthogonalEdgeStyle;rounded=0;orthogonalLoop=1;jettySize=auto;html=1;exitX=0.5;exitY=1;exitDx=0;exitDy=0;entryX=0;entryY=0;entryDx=0;entryDy=0;fontSize=12;startSize=8;endSize=8;" edge="1" parent="1" source="PSuhd4bYiq95UcWW58Qu-20" target="PSuhd4bYiq95UcWW58Qu-48">
          <mxGeometry relative="1" as="geometry" />
        </mxCell>
        <mxCell id="PSuhd4bYiq95UcWW58Qu-20" value="$5" style="whiteSpace=wrap;html=1;rounded=1;glass=0;strokeWidth=1;shadow=0;" vertex="1" parent="1">
          <mxGeometry x="-39" y="475" width="120" height="60" as="geometry" />
        </mxCell>
        <mxCell id="PSuhd4bYiq95UcWW58Qu-24" value="&lt;font style=&quot;font-size: 24px;&quot;&gt;NESTED IF STATEMENTS&lt;/font&gt;" style="text;html=1;align=center;verticalAlign=middle;whiteSpace=wrap;rounded=0;" vertex="1" parent="1">
          <mxGeometry x="17" y="-79" width="144" height="72" as="geometry" />
        </mxCell>
        <mxCell id="PSuhd4bYiq95UcWW58Qu-42" value="&lt;span style=&quot;font-size: 24px;&quot;&gt;ELIF&lt;/span&gt;" style="text;html=1;align=center;verticalAlign=middle;whiteSpace=wrap;rounded=0;" vertex="1" parent="1">
          <mxGeometry x="-214" y="442" width="144" height="72" as="geometry" />
        </mxCell>
        <mxCell id="PSuhd4bYiq95UcWW58Qu-49" value="" style="edgeStyle=none;curved=1;rounded=0;orthogonalLoop=1;jettySize=auto;html=1;fontSize=12;startSize=8;endSize=8;" edge="1" parent="1" source="PSuhd4bYiq95UcWW58Qu-45" target="PSuhd4bYiq95UcWW58Qu-48">
          <mxGeometry relative="1" as="geometry" />
        </mxCell>
        <mxCell id="PSuhd4bYiq95UcWW58Qu-45" value="$7" style="whiteSpace=wrap;html=1;rounded=1;glass=0;strokeWidth=1;shadow=0;" vertex="1" parent="1">
          <mxGeometry x="133" y="526" width="120" height="60" as="geometry" />
        </mxCell>
        <mxCell id="PSuhd4bYiq95UcWW58Qu-53" value="Yes&lt;div&gt;&lt;br&gt;&lt;/div&gt;" style="edgeStyle=orthogonalEdgeStyle;rounded=0;orthogonalLoop=1;jettySize=auto;html=1;fontSize=12;startSize=8;endSize=8;" edge="1" parent="1" source="PSuhd4bYiq95UcWW58Qu-48" target="PSuhd4bYiq95UcWW58Qu-52">
          <mxGeometry relative="1" as="geometry" />
        </mxCell>
        <mxCell id="PSuhd4bYiq95UcWW58Qu-55" value="" style="edgeStyle=none;curved=1;rounded=0;orthogonalLoop=1;jettySize=auto;html=1;fontSize=12;startSize=8;endSize=8;" edge="1" parent="1" source="PSuhd4bYiq95UcWW58Qu-48" target="PSuhd4bYiq95UcWW58Qu-54">
          <mxGeometry relative="1" as="geometry" />
        </mxCell>
        <mxCell id="PSuhd4bYiq95UcWW58Qu-48" value="Want photos?" style="rhombus;whiteSpace=wrap;html=1;rounded=1;glass=0;strokeWidth=1;shadow=0;" vertex="1" parent="1">
          <mxGeometry x="153" y="696" width="80" height="80" as="geometry" />
        </mxCell>
        <mxCell id="PSuhd4bYiq95UcWW58Qu-52" value="+$3" style="whiteSpace=wrap;html=1;rounded=1;glass=0;strokeWidth=1;shadow=0;" vertex="1" parent="1">
          <mxGeometry x="301" y="829" width="120" height="60" as="geometry" />
        </mxCell>
        <mxCell id="PSuhd4bYiq95UcWW58Qu-54" value="The total bill is $&amp;nbsp;" style="whiteSpace=wrap;html=1;rounded=1;glass=0;strokeWidth=1;shadow=0;" vertex="1" parent="1">
          <mxGeometry x="133" y="906" width="120" height="60" as="geometry" />
        </mxCell>
        <mxCell id="PSuhd4bYiq95UcWW58Qu-56" value="" style="rounded=0;whiteSpace=wrap;html=1;fillColor=none;dashed=1;dashPattern=8 8;strokeColor=light-dark(#000000,#99CCFF);" vertex="1" parent="1">
          <mxGeometry x="-57.5" y="680" width="501" height="300" as="geometry" />
        </mxCell>
        <mxCell id="PSuhd4bYiq95UcWW58Qu-57" value="&lt;span style=&quot;font-size: 24px;&quot;&gt;Multi&lt;/span&gt;&lt;div&gt;&lt;span style=&quot;font-size: 24px;&quot;&gt;If&lt;/span&gt;&lt;/div&gt;" style="text;html=1;align=center;verticalAlign=middle;whiteSpace=wrap;rounded=0;" vertex="1" parent="1">
          <mxGeometry x="-214" y="782" width="144" height="72" as="geometry" />
        </mxCell>
      </root>
    </mxGraphModel>
  </diagram>
</mxfile>
